<svg xmlns="http://www.w3.org/2000/svg" viewBox="0 0 920 430" width="920" height="430">
  <defs>
    <linearGradient id="sr-bg" x1="0%" y1="0%" x2="100%" y2="100%">
      <stop offset="0%" stop-color="#0a0a0a"/>
      <stop offset="45%" stop-color="#1a0505"/>
      <stop offset="75%" stop-color="#2a0505"/>
      <stop offset="100%" stop-color="#0d0d0d"/>
    </linearGradient>
    <linearGradient id="sr-red" x1="0%" y1="0%" x2="100%" y2="0%">
      <stop offset="0%" stop-color="#cc0000"/>
      <stop offset="50%" stop-color="#ff2222"/>
      <stop offset="100%" stop-color="#cc0000"/>
    </linearGradient>
    <linearGradient id="sr-rwb" x1="0%" y1="0%" x2="0%" y2="100%">
      <stop offset="0%" stop-color="#cc1111"/>
      <stop offset="40%" stop-color="#ffffff"/>
      <stop offset="100%" stop-color="#111111"/>
    </linearGradient>
    <radialGradient id="sr-glow" cx="55%" cy="50%" r="45%">
      <stop offset="0%" stop-color="#cc0000" stop-opacity="0.15"/>
      <stop offset="100%" stop-color="#cc0000" stop-opacity="0"/>
    </radialGradient>
    <radialGradient id="sr-glow2" cx="10%" cy="90%" r="30%">
      <stop offset="0%" stop-color="#cc0000" stop-opacity="0.10"/>
      <stop offset="100%" stop-color="#cc0000" stop-opacity="0"/>
    </radialGradient>
    <filter id="sr-blur"><feGaussianBlur stdDeviation="10"/></filter>
    <filter id="sr-blur2"><feGaussianBlur stdDeviation="4"/></filter>
    <clipPath id="sr-clip"><rect width="920" height="430"/></clipPath>
    <!-- Speed lines pattern -->
    <pattern id="sr-lines" x="0" y="0" width="80" height="430" patternUnits="userSpaceOnUse">
      <rect x="0" y="0" width="1" height="430" fill="#cc0000" opacity="0.06"/>
    </pattern>
  </defs>

  <g clip-path="url(#sr-clip)">
    <!-- Background -->
    <rect width="920" height="430" fill="url(#sr-bg)"/>
    <rect width="920" height="430" fill="url(#sr-glow)"/>
    <rect width="920" height="430" fill="url(#sr-glow2)"/>

    <!-- Speed lines (horizontal motion blur feel) -->
    <g opacity="0.5">
      <rect x="0" y="120" width="700" height="1" fill="#cc0000" opacity="0.08"/>
      <rect x="0" y="145" width="550" height="1" fill="#cc0000" opacity="0.05"/>
      <rect x="0" y="165" width="650" height="0.5" fill="#ffffff" opacity="0.04"/>
      <rect x="0" y="200" width="400" height="0.5" fill="#cc0000" opacity="0.06"/>
      <rect x="0" y="240" width="600" height="1" fill="#cc0000" opacity="0.05"/>
      <rect x="0" y="270" width="480" height="0.5" fill="#ffffff" opacity="0.03"/>
      <rect x="0" y="300" width="700" height="1" fill="#cc0000" opacity="0.07"/>
    </g>

    <!-- Checkered flag area — top-right, perspective-skewed -->
    <!-- Flag base: 18×10 grid of alternating squares, skewed -->
    <g transform="translate(580,-10) skewY(-8)" opacity="0.82">
      <!-- Row 0 -->
      <rect x="0"   y="0"  width="30" height="30" fill="#ffffff"/>
      <rect x="30"  y="0"  width="30" height="30" fill="#111111"/>
      <rect x="60"  y="0"  width="30" height="30" fill="#ffffff"/>
      <rect x="90"  y="0"  width="30" height="30" fill="#111111"/>
      <rect x="120" y="0"  width="30" height="30" fill="#ffffff"/>
      <rect x="150" y="0"  width="30" height="30" fill="#111111"/>
      <rect x="180" y="0"  width="30" height="30" fill="#ffffff"/>
      <rect x="210" y="0"  width="30" height="30" fill="#111111"/>
      <rect x="240" y="0"  width="30" height="30" fill="#ffffff"/>
      <rect x="270" y="0"  width="30" height="30" fill="#111111"/>
      <!-- Row 1 -->
      <rect x="0"   y="30" width="30" height="30" fill="#111111"/>
      <rect x="30"  y="30" width="30" height="30" fill="#ffffff"/>
      <rect x="60"  y="30" width="30" height="30" fill="#111111"/>
      <rect x="90"  y="30" width="30" height="30" fill="#ffffff"/>
      <rect x="120" y="30" width="30" height="30" fill="#111111"/>
      <rect x="150" y="30" width="30" height="30" fill="#ffffff"/>
      <rect x="180" y="30" width="30" height="30" fill="#111111"/>
      <rect x="210" y="30" width="30" height="30" fill="#ffffff"/>
      <rect x="240" y="30" width="30" height="30" fill="#111111"/>
      <rect x="270" y="30" width="30" height="30" fill="#ffffff"/>
      <!-- Row 2 -->
      <rect x="0"   y="60" width="30" height="30" fill="#ffffff"/>
      <rect x="30"  y="60" width="30" height="30" fill="#111111"/>
      <rect x="60"  y="60" width="30" height="30" fill="#ffffff"/>
      <rect x="90"  y="60" width="30" height="30" fill="#111111"/>
      <rect x="120" y="60" width="30" height="30" fill="#ffffff"/>
      <rect x="150" y="60" width="30" height="30" fill="#111111"/>
      <rect x="180" y="60" width="30" height="30" fill="#ffffff"/>
      <rect x="210" y="60" width="30" height="30" fill="#111111"/>
      <rect x="240" y="60" width="30" height="30" fill="#ffffff"/>
      <rect x="270" y="60" width="30" height="30" fill="#111111"/>
      <!-- Row 3 -->
      <rect x="0"   y="90" width="30" height="30" fill="#111111"/>
      <rect x="30"  y="90" width="30" height="30" fill="#ffffff"/>
      <rect x="60"  y="90" width="30" height="30" fill="#111111"/>
      <rect x="90"  y="90" width="30" height="30" fill="#ffffff"/>
      <rect x="120" y="90" width="30" height="30" fill="#111111"/>
      <rect x="150" y="90" width="30" height="30" fill="#ffffff"/>
      <rect x="180" y="90" width="30" height="30" fill="#111111"/>
      <rect x="210" y="90" width="30" height="30" fill="#ffffff"/>
      <rect x="240" y="90" width="30" height="30" fill="#111111"/>
      <rect x="270" y="90" width="30" height="30" fill="#ffffff"/>
      <!-- Row 4 -->
      <rect x="0"   y="120" width="30" height="30" fill="#ffffff"/>
      <rect x="30"  y="120" width="30" height="30" fill="#111111"/>
      <rect x="60"  y="120" width="30" height="30" fill="#ffffff"/>
      <rect x="90"  y="120" width="30" height="30" fill="#111111"/>
      <rect x="120" y="120" width="30" height="30" fill="#ffffff"/>
      <rect x="150" y="120" width="30" height="30" fill="#111111"/>
      <rect x="180" y="120" width="30" height="30" fill="#ffffff"/>
      <rect x="210" y="120" width="30" height="30" fill="#111111"/>
      <rect x="240" y="120" width="30" height="30" fill="#ffffff"/>
      <rect x="270" y="120" width="30" height="30" fill="#111111"/>
      <!-- Row 5 -->
      <rect x="0"   y="150" width="30" height="30" fill="#111111"/>
      <rect x="30"  y="150" width="30" height="30" fill="#ffffff"/>
      <rect x="60"  y="150" width="30" height="30" fill="#111111"/>
      <rect x="90"  y="150" width="30" height="30" fill="#ffffff"/>
      <rect x="120" y="150" width="30" height="30" fill="#111111"/>
      <rect x="150" y="150" width="30" height="30" fill="#ffffff"/>
      <rect x="180" y="150" width="30" height="30" fill="#111111"/>
      <rect x="210" y="150" width="30" height="30" fill="#ffffff"/>
      <rect x="240" y="150" width="30" height="30" fill="#111111"/>
      <rect x="270" y="150" width="30" height="30" fill="#ffffff"/>
      <!-- Row 6 -->
      <rect x="0"   y="180" width="30" height="30" fill="#ffffff"/>
      <rect x="30"  y="180" width="30" height="30" fill="#111111"/>
      <rect x="60"  y="180" width="30" height="30" fill="#ffffff"/>
      <rect x="90"  y="180" width="30" height="30" fill="#111111"/>
      <rect x="120" y="180" width="30" height="30" fill="#ffffff"/>
      <rect x="150" y="180" width="30" height="30" fill="#111111"/>
      <rect x="180" y="180" width="30" height="30" fill="#ffffff"/>
      <rect x="210" y="180" width="30" height="30" fill="#111111"/>
      <rect x="240" y="180" width="30" height="30" fill="#ffffff"/>
      <rect x="270" y="180" width="30" height="30" fill="#111111"/>
      <!-- Row 7 -->
      <rect x="0"   y="210" width="30" height="30" fill="#111111"/>
      <rect x="30"  y="210" width="30" height="30" fill="#ffffff"/>
      <rect x="60"  y="210" width="30" height="30" fill="#111111"/>
      <rect x="90"  y="210" width="30" height="30" fill="#ffffff"/>
      <rect x="120" y="210" width="30" height="30" fill="#111111"/>
      <rect x="150" y="210" width="30" height="30" fill="#ffffff"/>
      <rect x="180" y="210" width="30" height="30" fill="#111111"/>
      <rect x="210" y="210" width="30" height="30" fill="#ffffff"/>
      <rect x="240" y="210" width="30" height="30" fill="#111111"/>
      <rect x="270" y="210" width="30" height="30" fill="#ffffff"/>
      <!-- Row 8 -->
      <rect x="0"   y="240" width="30" height="30" fill="#ffffff"/>
      <rect x="30"  y="240" width="30" height="30" fill="#111111"/>
      <rect x="60"  y="240" width="30" height="30" fill="#ffffff"/>
      <rect x="90"  y="240" width="30" height="30" fill="#111111"/>
      <rect x="120" y="240" width="30" height="30" fill="#ffffff"/>
      <rect x="150" y="240" width="30" height="30" fill="#111111"/>
      <rect x="180" y="240" width="30" height="30" fill="#ffffff"/>
      <rect x="210" y="240" width="30" height="30" fill="#111111"/>
      <rect x="240" y="240" width="30" height="30" fill="#ffffff"/>
      <rect x="270" y="240" width="30" height="30" fill="#111111"/>
      <!-- Row 9 -->
      <rect x="0"   y="270" width="30" height="30" fill="#111111"/>
      <rect x="30"  y="270" width="30" height="30" fill="#ffffff"/>
      <rect x="60"  y="270" width="30" height="30" fill="#111111"/>
      <rect x="90"  y="270" width="30" height="30" fill="#ffffff"/>
      <rect x="120" y="270" width="30" height="30" fill="#111111"/>
      <rect x="150" y="270" width="30" height="30" fill="#ffffff"/>
      <rect x="180" y="270" width="30" height="30" fill="#111111"/>
      <rect x="210" y="270" width="30" height="30" fill="#ffffff"/>
      <rect x="240" y="270" width="30" height="30" fill="#111111"/>
      <rect x="270" y="270" width="30" height="30" fill="#ffffff"/>
      <!-- Row 10 -->
      <rect x="0"   y="300" width="30" height="30" fill="#ffffff"/>
      <rect x="30"  y="300" width="30" height="30" fill="#111111"/>
      <rect x="60"  y="300" width="30" height="30" fill="#ffffff"/>
      <rect x="90"  y="300" width="30" height="30" fill="#111111"/>
      <rect x="120" y="300" width="30" height="30" fill="#ffffff"/>
      <rect x="150" y="300" width="30" height="30" fill="#111111"/>
      <rect x="180" y="300" width="30" height="30" fill="#ffffff"/>
      <rect x="210" y="300" width="30" height="30" fill="#111111"/>
      <rect x="240" y="300" width="30" height="30" fill="#ffffff"/>
      <rect x="270" y="300" width="30" height="30" fill="#111111"/>
      <!-- Row 11 -->
      <rect x="0"   y="330" width="30" height="30" fill="#111111"/>
      <rect x="30"  y="330" width="30" height="30" fill="#ffffff"/>
      <rect x="60"  y="330" width="30" height="30" fill="#111111"/>
      <rect x="90"  y="330" width="30" height="30" fill="#ffffff"/>
      <rect x="120" y="330" width="30" height="30" fill="#111111"/>
      <rect x="150" y="330" width="30" height="30" fill="#ffffff"/>
      <rect x="180" y="330" width="30" height="30" fill="#111111"/>
      <rect x="210" y="330" width="30" height="30" fill="#ffffff"/>
      <rect x="240" y="330" width="30" height="30" fill="#111111"/>
      <rect x="270" y="330" width="30" height="30" fill="#ffffff"/>
      <!-- Row 12 -->
      <rect x="0"   y="360" width="30" height="30" fill="#ffffff"/>
      <rect x="30"  y="360" width="30" height="30" fill="#111111"/>
      <rect x="60"  y="360" width="30" height="30" fill="#ffffff"/>
      <rect x="90"  y="360" width="30" height="30" fill="#111111"/>
      <rect x="120" y="360" width="30" height="30" fill="#ffffff"/>
      <rect x="150" y="360" width="30" height="30" fill="#111111"/>
      <rect x="180" y="360" width="30" height="30" fill="#ffffff"/>
      <rect x="210" y="360" width="30" height="30" fill="#111111"/>
      <rect x="240" y="360" width="30" height="30" fill="#ffffff"/>
      <rect x="270" y="360" width="30" height="30" fill="#111111"/>
      <!-- Row 13 -->
      <rect x="0"   y="390" width="30" height="30" fill="#111111"/>
      <rect x="30"  y="390" width="30" height="30" fill="#ffffff"/>
      <rect x="60"  y="390" width="30" height="30" fill="#111111"/>
      <rect x="90"  y="390" width="30" height="30" fill="#ffffff"/>
      <rect x="120" y="390" width="30" height="30" fill="#111111"/>
      <rect x="150" y="390" width="30" height="30" fill="#ffffff"/>
      <rect x="180" y="390" width="30" height="30" fill="#111111"/>
      <rect x="210" y="390" width="30" height="30" fill="#ffffff"/>
      <rect x="240" y="390" width="30" height="30" fill="#111111"/>
      <rect x="270" y="390" width="30" height="30" fill="#ffffff"/>
      <!-- Row 14 -->
      <rect x="0"   y="420" width="30" height="30" fill="#ffffff"/>
      <rect x="30"  y="420" width="30" height="30" fill="#111111"/>
      <rect x="60"  y="420" width="30" height="30" fill="#ffffff"/>
      <rect x="90"  y="420" width="30" height="30" fill="#111111"/>
      <rect x="120" y="420" width="30" height="30" fill="#ffffff"/>
      <rect x="150" y="420" width="30" height="30" fill="#111111"/>
      <rect x="180" y="420" width="30" height="30" fill="#ffffff"/>
      <rect x="210" y="420" width="30" height="30" fill="#111111"/>
      <rect x="240" y="420" width="30" height="30" fill="#ffffff"/>
      <rect x="270" y="420" width="30" height="30" fill="#111111"/>
    </g>

    <!-- Overlay gradient to fade flag into bg on left -->
    <linearGradient id="sr-fade-left" x1="0%" y1="0%" x2="100%" y2="0%">
      <stop offset="0%" stop-color="#0a0a0a" stop-opacity="1"/>
      <stop offset="55%" stop-color="#0a0a0a" stop-opacity="1"/>
      <stop offset="100%" stop-color="#0a0a0a" stop-opacity="0"/>
    </linearGradient>
    <rect width="920" height="430" fill="url(#sr-fade-left)"/>

    <!-- Red-to-white-to-black diagonal gradient overlay on right -->
    <linearGradient id="sr-diag" x1="60%" y1="0%" x2="100%" y2="100%">
      <stop offset="0%" stop-color="#cc0000" stop-opacity="0.25"/>
      <stop offset="40%" stop-color="#ffffff" stop-opacity="0.06"/>
      <stop offset="100%" stop-color="#000000" stop-opacity="0.3"/>
    </linearGradient>
    <rect width="920" height="430" fill="url(#sr-diag)"/>

    <!-- Red diagonal stripe accent -->
    <polygon points="450,0 540,0 300,430 210,430" fill="#cc0000" opacity="0.06" filter="url(#sr-blur)"/>
    <polygon points="490,0 500,0 260,430 250,430" fill="#cc0000" opacity="0.10"/>
    <polygon points="415,0 420,0 185,430 180,430" fill="#ffffff" opacity="0.03"/>

    <!-- Left content -->
    <!-- Red horizontal accent line -->
    <rect x="60" y="178" width="340" height="3" fill="url(#sr-red)" opacity="0.9"/>
    <rect x="60" y="183" width="200" height="1" fill="#cc0000" opacity="0.4"/>

    <!-- Main title -->
    <text x="60" y="163" font-family="'Arial Black', 'Impact', sans-serif" font-size="60" font-weight="900" letter-spacing="6" fill="#FFFFFF" opacity="0.97">SIM RACING</text>

    <!-- Tagline -->
    <text x="63" y="216" font-family="'Arial', sans-serif" font-size="14" font-weight="400" letter-spacing="5" fill="#cc0000" opacity="0.9">iRACING · ACC · F1 · ASSETTO CORSA</text>

    <!-- Descriptor -->
    <text x="63" y="310" font-family="'Arial', sans-serif" font-size="13" letter-spacing="2" fill="#FFFFFF" opacity="0.30">COCKPITS · TÉCNICA · ENDURANCE</text>

    <!-- Finish line flag icon (small) -->
    <g transform="translate(63,332)" opacity="0.7">
      <!-- Small checkered flag 4x3 cells -->
      <rect x="0"  y="0" width="10" height="10" fill="#ffffff"/>
      <rect x="10" y="0" width="10" height="10" fill="#111111"/>
      <rect x="20" y="0" width="10" height="10" fill="#ffffff"/>
      <rect x="30" y="0" width="10" height="10" fill="#111111"/>
      <rect x="0"  y="10" width="10" height="10" fill="#111111"/>
      <rect x="10" y="10" width="10" height="10" fill="#ffffff"/>
      <rect x="20" y="10" width="10" height="10" fill="#111111"/>
      <rect x="30" y="10" width="10" height="10" fill="#ffffff"/>
      <rect x="0"  y="20" width="10" height="10" fill="#ffffff"/>
      <rect x="10" y="20" width="10" height="10" fill="#111111"/>
      <rect x="20" y="20" width="10" height="10" fill="#ffffff"/>
      <rect x="30" y="20" width="10" height="10" fill="#111111"/>
    </g>
    <!-- Flagpole -->
    <rect x="63" y="328" width="2" height="38" fill="#cc0000" opacity="0.7"/>
    <text x="108" y="348" font-family="'Arial', monospace" font-size="11" letter-spacing="3" fill="#cc0000" opacity="0.5">// CREATORS S-HUB</text>

    <!-- Red gradient band bottom -->
    <linearGradient id="sr-bottom" x1="0%" y1="0%" x2="100%" y2="0%">
      <stop offset="0%" stop-color="#cc0000" stop-opacity="0.6"/>
      <stop offset="60%" stop-color="#cc0000" stop-opacity="0"/>
    </linearGradient>
    <rect x="0" y="395" width="920" height="35" fill="url(#sr-bottom)"/>

    <!-- Corner decorative brackets — red -->
    <path d="M15,15 L55,15 L55,19 L19,19 L19,55 L15,55 Z" fill="#cc0000" opacity="0.7"/>
    <path d="M905,15 L865,15 L865,19 L901,19 L901,55 L905,55 Z" fill="#ffffff" opacity="0.3"/>
    <path d="M15,415 L55,415 L55,411 L19,411 L19,375 L15,375 Z" fill="#cc0000" opacity="0.5"/>
    <path d="M905,415 L865,415 L865,411 L901,411 L901,375 L905,375 Z" fill="#cc0000" opacity="0.4"/>

    <!-- Top border -->
    <rect x="0" y="0" width="920" height="3" fill="url(#sr-red)" opacity="0.9"/>
    <rect x="0" y="427" width="920" height="3" fill="#cc0000" opacity="0.3"/>
  </g>
</svg>
